<svg version="1.1" id="Layer_1" xmlns="http://www.w3.org/2000/svg" x="0" y="0" viewBox="0 0 1823 1049.8" xml:space="preserve"><style>.st0{fill:#fff}</style><g id="Group_1612" transform="translate(-28.347 -28.346)"><g id="Group_1605" transform="translate(75.819 583.669)"><path id="Path_6737" class="st0" d="M88.9 27.1H56.5v100.6h-22V27.1H0V8.8h94.1l-5.2 18.3z"/><path id="Path_6738" class="st0" d="M140.3 62.4c-3.1-1.8-6.6-2.7-10.1-2.7-5.1 0-10.6 2.3-16.4 7.6v60.4H92.1V42.4h18.2l2.5 9c8.7-7.8 15.3-11 23.6-11 4.2 0 8.4 1.3 11.9 3.6l-8 18.4z"/><path id="Path_6739" class="st0" d="M206.3 127.7l-3.6-7.6c-6.7 6.2-15.6 9.6-24.7 9.4-15.7 0-28-10.6-28-27.4 0-17.7 13.9-27.2 35.9-28l15.2-.5v-2.2c0-10.3-7.4-14.4-16.4-14.4-7.8 0-15.4 2.2-22 6.3l-6.9-13.5c11.4-7.6 22-9.4 33.4-9.4 21.1 0 33.7 8.7 33.7 31v33.7c0 12.3.4 18.6 1.6 22.5l-18.2.1zm-5.4-39.1l-12.3.4c-11.7.4-17 4.3-17 11.5 0 7 4.9 11.9 13.9 11.9 7.6 0 12.6-2.9 15.3-5.4V88.6z"/><path id="Path_6740" class="st0" d="M281.7 128.2H266l-35.2-85.8H253l21.3 58.1h.4l21.6-58.1h20.9l-35.5 85.8z"/><path id="Path_6741" class="st0" d="M343.3 90.7c.4 12.6 10.8 21.5 24 21.5 8.1 0 14.8-2 22.2-6l5.2 13.9c-9.2 6.2-20 9.5-31 9.4-29.8 0-42.4-21.6-42.4-44.5 0-24.3 14.4-44.5 38.8-44.5 23.1 0 38.2 17.5 38.2 44v6.3h-55zm16.2-34.1c-10.5 0-16.8 9.4-16.8 18.8H376c-.4-9.2-5.5-18.8-16.5-18.8z"/><path id="Path_6742" class="st0" d="M434.2 129.5c-14.2 0-19.7-8.1-19.7-18.8V0h21.6v101.2c0 6.3 1.3 8.8 5.8 8.8 2.1 0 4.3-.3 6.3-.9l2.7 16.1c-5.1 2.8-10.8 4.3-16.7 4.3z"/><path id="Path_6743" class="st0" d="M599.4 128.2H583l-19.1-58.1h-.5l-19.1 58.1h-16.4l-31-85.8h22l18.2 57.7h.5l18.8-57.7h16.4l19.1 57.9h.4l18-57.9H631l-31.6 85.8z"/><path id="Path_6744" class="st0" d="M654.9 29.2c-7.2-.1-13-6.1-12.8-13.3.1-7.2 6.1-13 13.3-12.8 7.1.1 12.8 5.9 12.8 13 .1 7.2-5.7 13.1-12.9 13.2-.1-.1-.2-.1-.4-.1zm-10.8 98.5V42.4h21.6v85.3h-21.6z"/><path id="Path_6745" class="st0" d="M717.3 129.5c-15.2 0-21.1-8.5-21.1-20V58.6H681V42.4h15.2V22.7l21.6-6.5v26.2h26.5L738 58.6h-20.2v42.9c0 6.7 2.5 9.7 8.1 9.7 5.4 0 11-2.5 14.3-4.7l5.8 13.7c-8.5 5.9-18.4 9.1-28.7 9.3z"/><path id="Path_6746" class="st0" d="M813.3 127.7V77.9c0-9.6-1.4-18.6-13-18.6-7.4 0-15 4.1-20.7 9v59.3H758V0h21.6v51.6c7.9-6.5 17.3-11.2 28.3-11.2 13.2 0 27.2 6.3 27.2 31.4v55.9h-21.8z"/><path id="Path_6747" class="st0" d="M935.7 129.5c-27.8 0-42-20-42-44 0-26 18.8-45.1 44.2-45.1 11.5 0 19.5 2.9 24.3 6l-.3 17.6c-6.1-4.7-13.7-7.2-21.5-7-14.6 0-25.1 11.5-25.1 27.4 0 14.6 7.9 27.6 24.9 27.6 8.1 0 14.2-2.5 20.2-6l5.4 14.2c-8.9 5.9-19.4 9.1-30.1 9.3z"/><path id="Path_6748" class="st0" d="M1047.5 117.2c-7.6 7.8-18 12.3-30.8 12.3-11.9 0-22-3.8-29.4-10.6-8.5-7.9-13.2-19.7-13.2-33.4 0-13.3 4.5-24.9 12.4-33 7.6-7.6 17.9-12.1 30.3-12.1 13.2 0 23.8 4.5 31.4 12.3 7.4 7.9 11.4 19.1 11.4 32.1s-4.1 24.5-12.1 32.4zm-31-59.7c-13.7 0-20.4 11.5-20.4 27.4 0 16.6 7.8 27.8 20.9 27.8 13.5 0 20.4-11.7 20.4-27.8 0-16.4-7.6-27.4-20.9-27.4z"/><path id="Path_6749" class="st0" d="M1131.9 127.7V77.6c0-8.8-1.6-18.6-12.6-18.6-7.6 0-15 4-21.6 9v59.7H1076V42.4h18.4l2.3 9.2c9.2-6.9 18.4-11.2 29.9-11.2 13 0 26.9 7.8 26.9 30.7v56.6h-21.6z"/><path id="Path_6750" class="st0" d="M1222.6 19.7c-3.4-1.5-7.1-2.3-10.8-2.4-6.9 0-10.1 4.2-10.1 11.5v13.5h22.5l-5.6 16.6h-17v68.7H1180V59h-12.4V42.4h12.4V30.5c0-25.2 18.2-30.5 30.1-30.5 5.8.1 11.5 1.4 16.8 3.8l-4.3 15.9z"/><path id="Path_6751" class="st0" d="M1249.8 29.2c-7.2-.1-13-6.1-12.8-13.3.1-7.2 6.1-13 13.3-12.8 7.1.1 12.8 5.9 12.8 13 .1 7.2-5.7 13.1-12.9 13.2-.1-.1-.2-.1-.4-.1zm-10.8 98.5V42.4h21.6v85.3H1239z"/><path id="Path_6752" class="st0" d="M1326 129.5c-25.4 0-46.4-15-46.4-43.8 0-26.5 19.7-45.3 47.3-45.3 3.6-.1 7.2.2 10.8.7V0h21.6v122.6c-8.1 4.2-18.7 6.9-33.3 6.9zm11.7-70.7c-3.3-.9-6.7-1.3-10.1-1.3-15.3 0-26.3 10.3-26.3 27.1 0 15.5 10.1 27.1 26.7 27.1 3.3 0 6.6-.4 9.7-1.3V58.8z"/><path id="Path_6753" class="st0" d="M1397.2 90.7c.4 12.6 10.8 21.5 24 21.5 8.1 0 14.8-2 22.2-6l5.2 13.9c-9.2 6.2-20 9.5-31 9.4-29.8 0-42.4-21.6-42.4-44.5 0-24.3 14.4-44.5 38.8-44.5 23.1 0 38.2 17.5 38.2 44v6.3h-55zm16.2-34.1c-10.5 0-16.8 9.4-16.8 18.8h33.2c-.3-9.2-5.4-18.8-16.4-18.8z"/><path id="Path_6754" class="st0" d="M1524.3 127.7V77.6c0-8.8-1.6-18.6-12.6-18.6-7.6 0-15 4-21.6 9v59.7h-21.6V42.4h18.4l2.3 9.2c9.2-6.9 18.4-11.2 29.9-11.2 13 0 26.9 7.8 26.9 30.7v56.6h-21.7z"/><path id="Path_6755" class="st0" d="M1603.9 129.5c-27.8 0-42-20-42-44 0-26 18.8-45.1 44.2-45.1 11.5 0 19.5 2.9 24.4 6L1630 64c-6.1-4.7-13.7-7.2-21.5-7-14.6 0-25.1 11.5-25.1 27.4 0 14.6 7.9 27.6 24.9 27.6 8.1 0 14.2-2.5 20.2-6l5.4 14.2c-8.9 5.9-19.3 9.1-30 9.3z"/><path id="Path_6756" class="st0" d="M1664.3 90.7c.4 12.6 10.8 21.5 24 21.5 8.1 0 14.8-2 22.2-6l5.2 13.9c-9.2 6.2-20 9.5-31 9.4-29.8 0-42.4-21.6-42.4-44.5 0-24.3 14.4-44.5 38.8-44.5 23.1 0 38.2 17.5 38.2 44v6.3h-55zm16.2-34.1c-10.5 0-16.8 9.4-16.8 18.8h33.2c-.4-9.2-5.4-18.8-16.4-18.8z"/></g><g id="Group_1610" transform="translate(28.347 28.346)"><g id="Group_1606" transform="translate(490.104 54.382)"><path id="Path_6757" class="st0" d="M532.7 401H405.5V.1h125.3c81 0 118 55.4 118 104 0 38.4-15.9 63.9-48 83.3v1.2c46.3 10.3 74.2 42.6 74.2 91.3 0 57.3-41.4 121.1-142.3 121.1zM520.5 62.2h-41.4v104.6H518c33 0 57.2-21.2 57.2-54.8.1-28.5-19.4-49.8-54.7-49.8zm14 166h-55.3V339H526c49.3 0 73.6-22 73.6-58.4 0-31.1-23.8-52.4-65.1-52.4z"/><path id="Path_6758" class="st0" d="M970.3 61.6H863.5V401h-74.2V61.6H673.1V.1h321.1l-23.9 61.5z"/><path id="Path_6759" class="st0" d="M293.5 401l-39.6-100.5H110.8L73.7 401H0L155.1 0h55.2l160.6 401h-77.4zm-95-252.8c-6.1-16.3-11.2-32.9-15.2-49.9h-.6c-2.4 14-7.8 29.8-14.6 48.7l-34.8 93.4h97.6l-32.4-92.2z"/><path id="Path_6760" class="st0" d="M1211.9 401l-39.6-100.5h-143.1L992.1 401h-73.7L1073.5 0h55.2l160.6 401h-77.4zM1117 148.2c-6.1-16.3-11.2-32.9-15.2-49.9h-.7c-2.4 14-7.9 29.8-14.6 48.7l-34.8 93.4h97.6l-32.3-92.2z"/></g><g id="Group_1609"><g id="Group_1607" transform="translate(4.801)"><path id="Path_6761" class="st0" d="M237.5 0c-7.7 0-15.2.4-22.7 1.1V483.5c7.5.7 15 1.1 22.7 1.1 133.8 0 242.3-108.5 242.3-242.3S371.3 0 237.5 0zm88.6 264.4c-.9 15.2-3 30.3-6 45.2h-56.8v-45.2h62.8zm-62.8-45.3v-45.2h56.5c3.1 14.9 5.2 30 6.2 45.2h-62.7zm110.4 45.3h56.8c-1.7 15.4-5.3 30.6-10.6 45.2h-52.3c3.1-14.9 5.1-30 6.1-45.2zm0-45.3c-1.1-15.2-3.2-30.3-6.3-45.2h52.2c5.5 14.6 9.1 29.8 10.9 45.2h-56.8zm21.4-90.4h-40.9C346.3 107.3 336 87 323.4 68c28.5 14 53.1 34.9 71.7 60.7zm-88.3 0h-43.5v-79c18.5 24 33.1 50.6 43.5 79zm-43.5 306.2v-80h43.9c-10.3 28.8-25.1 55.8-43.9 80zm60.5-18.5c12.7-19.2 23-39.9 30.9-61.5h41.1c-18.5 26.1-43.3 47.2-72 61.5z"/><path id="Path_6762" class="st0" d="M44.8 95.9C22.2 125.5 6.9 160 0 196.6h145.5L44.8 95.9z"/><path id="Path_6763" class="st0" d="M191.9 150.1V4.7c-36.6 6.9-71 22.3-100.6 44.8l100.6 100.6z"/><path id="Path_6764" class="st0" d="M91.3 433.8c29.6 22.5 64.1 37.8 100.6 44.8V333.1L91.3 433.8z"/><path id="Path_6765" class="st0" d="M145.5 286.6H0c6.9 36.6 22.3 71.1 44.8 100.7l100.7-100.7z"/></g><g id="Group_1608" transform="translate(0 62.181)"><path id="Path_6766" class="st0" d="M196.7 134.4V116L80.7 0c-6.4 5.8-12.6 11.9-18.4 18.3l116.1 116.1h18.3z"/><path id="Path_6767" class="st0" d="M196.7 224.5v18.4l-116 116c-6.5-5.8-12.6-11.9-18.4-18.3l116.1-116.1h18.3z"/><path id="Path_6768" class="st0" d="M196.7 157.5H1.1c-.7 7.4-1.1 15-1.1 22.6 0 7.6.4 15.1 1.1 22.6h195.6v-45.2z"/></g></g></g><text transform="translate(48.375 1025.177)" class="st0" font-size="250" font-family="ArialMT" id="Group_1611">ABTA No.Y6295</text></g></svg>