<svg version="1.1" id="svg2" xmlns="http://www.w3.org/2000/svg" x="0" y="0" viewBox="0 0 220.6 97.7" xml:space="preserve"><style>.st2{fill-rule:evenodd;clip-rule:evenodd;fill:#fff}</style><path id="path16_1_" d="M219.8 65.8c0 5.8-4.7 10.4-10.4 10.4H11.2C5.4 76.2.8 71.5.8 65.8V11.2C.8 5.4 5.5.8 11.2.8h198.2c5.8 0 10.4 4.7 10.4 10.4v54.6z" fill="none" stroke="#fff" stroke-width="1.561" stroke-miterlimit="1.333"/><path id="path18_1_" d="M77.6.8H11.2C5.5.8.8 5.5.8 11.2v54.5c0 5.8 4.7 10.4 10.4 10.4h66.3V.8" fill-rule="evenodd" clip-rule="evenodd" fill="none"/><path id="path20_1_" class="st2" d="M37.2 24.2l-3.3 4.5C32.3 31 32.8 35 35 36.6l6 4.4c1 .7 1.1 1.5.6 2.3l.9.7 3.1-4.2c1.9-2.6 1.7-6.2-1.1-8.2l-6-4.6c-.7-.5-.8-1.3-.4-2.1l-.9-.7"/><path id="path22_1_" class="st2" d="M42.4 4.4l-5.1 7c-2.4 3.3-1.5 8.9 1.7 11.3l8.4 6.1c1.7 1.2 1.9 4.4.7 6l.7.5 5.8-8.1c2.6-3.6 2.4-9-1.6-12l-9-6.4c-1.3-.9-1.9-2.5-.8-3.9l-.8-.5"/><path id="path24_1_" class="st2" d="M29 48.4h6.7l1.2 4.1h11l1.2-4.1h6.7l-.9-3H29.8l-.8 3"/><path id="path26_1_" class="st2" d="M63.8 69.4v-.2s0-.1-.1-.1c0 0-.1-.1-.2-.1s-.1-.1-.2-.1-.2-.1-.2-.1c-.1 0-.1-.1-.1-.1s0-.1-.1-.1v-.1-.1s0-.1.1-.1c0 0 .1 0 .1-.1h.4c.1 0 .1.1.2.1l.1-.1c-.1-.1-.1-.1-.2-.1h-.5c-.1 0-.1 0-.2.1l-.1.1v.4s0 .1.1.1c0 0 .1.1.2.1s.1.1.2.1.1.1.2.1.1.1.1.1l.1.1v.1c0 .1 0 .2-.1.2-.1.1-.2.1-.3.1-.1 0-.2 0-.2-.1-.1 0-.1-.1-.2-.1l-.1.1c.1.1.2.1.3.2.1 0 .2.1.3.1h.2c.1 0 .1-.1.2-.1l.1-.1c-.1-.2-.1-.3-.1-.3"/><path id="path28_1_" class="st2" d="M65.6 69.8v-1.7h-.2l-.4 1V69.1l-.4-1h-.2v1.7h.2v-1.3.4l.5 1.1.5-1.1v-.1-.1-.1-.1 1.3"/><path id="path30_1_" class="st2" d="M29.5 67.1h-4v-3.4h4c3 0 2.8 3.4 0 3.4zm-4-9.2h3.6c2.3 0 2.3 3.2.1 3.2h-3.8v-3.2zm9.3 7.3c-.3-1.9-1.1-2.4-2.6-3.1 1.2-.7 1.9-1.7 1.9-3.1 0-2.8-2.3-3.9-4.8-3.9h-7v14.8h6.9c3-.1 6.1-1.3 5.6-4.7"/><path id="path32_1_" class="st2" d="M43.4 67.1h-4v-3.4h4c2.9 0 2.7 3.4 0 3.4zm-4.1-9.2h3.6c2.3 0 2.3 3.2.1 3.2h-3.8v-3.2zm9.3 7.3c-.3-1.9-1.1-2.4-2.6-3.1 1.2-.7 1.9-1.7 1.9-3.1 0-2.8-2.3-3.9-4.8-3.9h-7v14.8H43c3-.1 6.1-1.3 5.6-4.7"/><path id="path34_1_" class="st2" d="M57.2 67.1h-4v-3.4h4c2.9 0 2.8 3.4 0 3.4zm-4.1-9.2h3.6c2.3 0 2.3 3.2.1 3.2H53v-3.2zm9.4 7.3c-.3-1.9-1.1-2.4-2.6-3.1 1.2-.7 1.9-1.7 1.9-3.1 0-2.8-2.3-3.9-4.8-3.9h-7v14.8h6.9c2.9-.1 6.1-1.3 5.6-4.7"/><path class="st2" d="M157.4 30.2h-1.5v8.3h1.4c.7 0 1.4-.1 1.9-.3.5-.2 1-.5 1.4-.8.4-.4.6-.8.8-1.3.2-.5.3-1.1.3-1.7 0-1.4-.3-2.4-1-3.1-.7-.7-1.8-1.1-3.3-1.1zM93.3 31.9c-.1-.4-.2-.7-.3-.9l-.3.9c-.1.4-.3.8-.4 1.2l-.9 2.5h3.3l-.9-2.5c-.3-.4-.4-.8-.5-1.2zM109.8 49.8c.2-.2.3-.5.3-.9s-.1-.7-.4-1c-.3-.2-.7-.3-1.3-.3h-3.5v2.6h3.7c.5-.1.9-.2 1.2-.4zM135.9 32c0-.6-.2-1.1-.5-1.3-.4-.3-.9-.4-1.5-.4h-3.7v3.5h3.7c1.3-.1 2-.7 2-1.8z"/><path class="st2" d="M209.4.8H11.2C5.5.8.8 5.5.8 11.2.8 5.4 5.5.8 11.2.8h66.3v75.4h131.8c5.8 0 10.4-4.7 10.4-10.4V11.2c.1-5.7-4.5-10.4-10.3-10.4zm-42 26.8h2.8v13.5h-2.8V27.6zM96.7 41.1l-1.1-3h-5.2l-1.1 3h-3.1l5.5-13.5h2.8l5.4 13.5h-3.2zm4.1-3.8c-.3-.9-.4-1.8-.4-2.9 0-1 .2-2 .5-2.8.3-.9.7-1.6 1.3-2.2.6-.6 1.2-1.1 2-1.4.8-.3 1.6-.5 2.6-.5.7 0 1.3.1 1.8.2 1.2.3 2.6 1.2 3.4 2.2l-2 1.9c-.7-.9-2.2-1.6-3.3-1.6-.5 0-1 .1-1.4.3-.4.2-.8.5-1.1.9-.3.4-.5.8-.7 1.4-.1.5-.2 1.1-.2 1.7 0 .6.1 1.2.2 1.7.2.5.4 1 .7 1.4.3.4.6.7 1.1.9.4.2.9.3 1.4.3 1.1 0 2.9-.8 3.5-1.7l2 1.8c-.9 1.7-3.8 2.6-5.6 2.6-.9 0-1.8-.2-2.5-.5-.8-.3-1.4-.8-2-1.4-.6-.7-1-1.5-1.3-2.3zM113 56.1c-.2.5-.6 1-1 1.4-.4.4-.9.6-1.6.8-.6.2-1.3.3-2 .3h-6.3V45.1h6.4c1.3 0 2.4.3 3.2.9.8.6 1.2 1.5 1.2 2.7 0 .6-.1 1.1-.4 1.5-.3.5-.6.8-1.1 1.1.6.2 1 .6 1.4 1.1.4.5.6 1.1.6 1.9 0 .6-.1 1.3-.4 1.8zm.9-18.8c-.3-.9-.4-1.8-.4-2.9 0-1 .2-2 .5-2.8.3-.9.7-1.6 1.3-2.2.6-.6 1.2-1.1 2-1.4.8-.3 1.6-.5 2.6-.5.7 0 1.3.1 1.8.2 1.2.3 2.6 1.2 3.4 2.2l-2 1.9c-.7-.9-2.2-1.6-3.3-1.6-.5 0-1 .1-1.4.3-.4.2-.8.5-1.1.9-.3.4-.5.8-.7 1.4-.1.5-.2 1.1-.2 1.7 0 .6.1 1.2.2 1.7s.4 1 .7 1.4c.3.4.6.7 1.1.9.4.2.9.3 1.4.3 1.1 0 2.9-.8 3.5-1.7l2 1.8c-.9 1.7-3.8 2.6-5.6 2.6-.9 0-1.8-.2-2.5-.5-.8-.3-1.4-.8-2-1.4-.5-.7-1-1.5-1.3-2.3zm12.6 15.3c0 2-.5 3.5-1.5 4.6-1 1.1-2.4 1.6-4.1 1.6-.8 0-1.6-.1-2.3-.4-.7-.3-1.3-.7-1.8-1.2s-.9-1.2-1.1-1.9c-.3-.8-.4-1.6-.4-2.6v-7.6h2.8v7.6c0 1.1.3 2 .8 2.6.5.6 1.2.9 2.1.9.9 0 1.6-.3 2.1-.9.5-.6.8-1.5.8-2.6v-7.6h2.8v7.5zm.8-25h6.6c.7 0 1.3.1 1.9.3.6.2 1.1.4 1.6.8.4.4.8.8 1.1 1.3.3.5.4 1.2.4 1.9 0 1-.2 1.9-.7 2.5-.5.7-1.5 1.3-2.4 1.6l3.2 5.1h-3.3l-3-4.8-2.5-.1v4.9h-2.9V27.6zM139 56.3c-.2.5-.5 1-1 1.4-.5.4-1 .7-1.7.9-.7.2-1.5.3-2.5.3-1.2 0-2.2-.2-3.2-.7-1-.4-1.7-1-2.2-1.8l2-1.7c.5.6 1 1 1.6 1.2.6.2 1.2.4 1.9.4.8 0 1.4-.1 1.8-.3.4-.2.6-.6.6-1.1 0-.2 0-.4-.1-.6-.1-.2-.2-.3-.4-.5-.2-.1-.5-.3-.9-.4-.4-.1-.9-.3-1.6-.4-.6-.1-1.2-.3-1.8-.5-.5-.2-1-.4-1.4-.7-.4-.3-.7-.7-.9-1.1-.2-.5-.3-1-.3-1.7 0-.6.1-1.2.4-1.7.3-.5.6-.9 1.1-1.2.5-.3 1-.6 1.6-.8.6-.2 1.2-.3 1.9-.3 1.1 0 2 .2 2.8.6.8.4 1.6.9 2.2 1.6l-2 1.9c-.4-.5-.9-.8-1.4-1-.5-.2-1.1-.4-1.7-.4-.4 0-.7 0-.9.1-.3.1-.5.2-.6.3-.2.1-.3.2-.3.4-.1.1-.1.3-.1.4 0 .2 0 .4.1.6.1.1.2.3.4.4.2.1.5.2.9.3.4.1.8.2 1.4.3.6.1 1.1.3 1.7.5.5.2 1 .4 1.5.7.4.3.8.7 1.1 1.2.3.5.4 1.1.4 1.8-.1.5-.2 1-.4 1.6zm1.7-28.7h9.9v2.6h-7v2.3h5.9v2.6h-5.9v3.3h7.4V41h-10.2V27.6zm3.6 31h-2.8V45.1h2.8v13.5zm14.1 0H156l-5.1-7.4c-.2-.3-.4-.5-.5-.8-.2-.3-.3-.5-.4-.7v9h-2.7V45.1h2.7l4.9 7.2c.2.3.4.5.5.8.2.3.3.5.4.7v-.6-.8-.9-6.4h2.7v13.5zm-1.1-17.5H153V27.6h4.5c1 0 2 .1 2.8.4.9.2 1.6.6 2.2 1.2.6.5 1.1 1.2 1.5 2.1.4.9.5 1.9.5 3.1 0 1.2-.2 2.2-.6 3.1-.4.9-1 1.6-1.6 2.1-.7.5-1.5 1-2.3 1.2-.9.2-1.8.3-2.7.3zm14.4 17.5h-10.2V45.1h9.9v2.6h-7V50h5.9v2.6h-5.9V56h7.4v2.6zm11-2.3c-.2.5-.5 1-1 1.4-.4.4-1 .7-1.7.9-.7.2-1.5.3-2.4.3-1.2 0-2.2-.2-3.2-.7-1-.4-1.7-1-2.2-1.8l2-1.7c.5.6 1 1 1.6 1.2.6.2 1.2.4 1.9.4.8 0 1.4-.1 1.8-.3.4-.2.6-.6.6-1.1 0-.2 0-.4-.1-.6-.1-.2-.2-.3-.4-.5-.2-.1-.5-.3-.9-.4-.4-.1-.9-.3-1.6-.4-.6-.1-1.2-.3-1.8-.5-.5-.2-1-.4-1.4-.7-.4-.3-.7-.7-.9-1.1-.2-.5-.3-1-.3-1.7 0-.6.1-1.2.4-1.7.3-.5.6-.9 1.1-1.2.4-.3 1-.6 1.6-.8.6-.2 1.2-.3 1.9-.3 1.1 0 2 .2 2.8.6.8.4 1.6.9 2.2 1.6l-2 1.9c-.5-.5-.9-.8-1.4-1-.5-.2-1.1-.4-1.7-.4-.4 0-.7 0-.9.1-.3.1-.5.2-.6.3-.2.1-.3.2-.3.4-.1.1-.1.3-.1.4 0 .2 0 .4.1.6.1.1.2.3.4.4.2.1.5.2.9.3.4.1.8.2 1.4.3.6.1 1.1.3 1.7.5.5.2 1 .4 1.5.7.4.3.8.7 1.1 1.2.3.5.4 1.1.4 1.8-.2.5-.3 1-.5 1.6zm.8-26h-4.1v10.9h-2.9V30.3h-4.1v-2.7h11v2.7zm11.1 26c-.2.5-.5 1-1 1.4-.4.4-1 .7-1.7.9-.7.2-1.5.3-2.5.3-1.2 0-2.2-.2-3.2-.7-1-.4-1.7-1-2.2-1.8l2-1.7c.5.6 1 1 1.6 1.2.6.2 1.2.4 1.9.4.8 0 1.4-.1 1.8-.3.4-.2.6-.6.6-1.1 0-.2 0-.4-.1-.6-.1-.2-.2-.3-.4-.5-.2-.1-.5-.3-.9-.4-.4-.1-.9-.3-1.6-.4-.6-.1-1.2-.3-1.8-.5-.5-.2-1-.4-1.4-.7-.4-.3-.7-.7-.9-1.1-.2-.5-.3-1-.3-1.7 0-.6.1-1.2.4-1.7.3-.5.6-.9 1.1-1.2.4-.3 1-.6 1.6-.8.6-.2 1.2-.3 1.9-.3 1.1 0 2 .2 2.8.6.8.4 1.5.9 2.2 1.6l-2 1.9c-.5-.5-.9-.8-1.4-1-.5-.2-1.1-.4-1.7-.4-.4 0-.7 0-.9.1-.3.1-.5.2-.6.3-.2.1-.3.2-.3.4-.1.1-.1.3-.1.4 0 .2 0 .4.1.6.1.1.2.3.4.4.2.1.5.2.9.3.4.1.8.2 1.4.3.6.1 1.1.3 1.7.5.5.2 1 .4 1.5.7.4.3.8.7 1.1 1.2.3.5.4 1.1.4 1.8-.1.5-.2 1-.4 1.6zm.9-15.2h-10.2V27.6h9.9v2.6h-7v2.3h5.9v2.6h-5.9v3.3h7.4v2.7zm13.1-3.7c-.4.9-1 1.6-1.6 2.1-.7.5-1.5 1-2.3 1.2-.9.3-1.8.4-2.7.4h-4.3V27.6h4.5c1 0 2 .1 2.8.4.9.2 1.6.6 2.2 1.2.6.5 1.1 1.2 1.5 2.1.4.9.5 1.9.5 3.1 0 1.2-.2 2.2-.6 3z"/><path class="st2" d="M108.6 52.5h-3.7V56h3.7c.7 0 1.2-.2 1.5-.5.3-.3.5-.7.5-1.3-.1-1.1-.7-1.7-2-1.7zM202 30.2h-1.5v8.3h1.4c.7 0 1.4-.1 1.9-.3.5-.2 1-.5 1.4-.8.4-.4.6-.8.8-1.3.2-.5.3-1.1.3-1.7 0-1.4-.3-2.4-1-3.1-.7-.7-1.8-1.1-3.3-1.1z"/><path id="path72_1_" class="st2" d="M88.9 94.8h-2.7V82.5h5.7c1.4 0 2.8.4 3.7 1.4 1.1 1.3 1.2 3.4.3 4.9-.5.8-1.3 1.2-2 1.7 1 1.4 2 2.9 3 4.3h-3.2c-.9-1.3-1.8-2.6-2.7-4h-2.1v4zm72.1-9l-1.8 3.8h3.3l-1.5-3.8zm-1.2-3.5h2.4c.1.1.2.4.3.6l5 11.8h-2.9c-.3-.9-.6-1.8-1-2.7h-5.2c-.4.9-.8 1.8-1.1 2.8h-2.8l5.3-12.5zm-43.4-.4h2.8v2.4h-2.8v-2.4zm-73.7.6c2.2 0 4.4-.1 6.6 0 1.6.1 3.3 1.4 3.2 3.1.1 1.1-.7 2-1.5 2.7 1.2.6 2.3 1.5 2.2 2.9.2 1.7-1.4 3.2-3 3.5h-7.5V82.5zm2.7 2.3v2.6c1.2 0 2.5.1 3.7-.2 1.1-.3 1.1-2 0-2.3-1.3-.2-2.5 0-3.7-.1zm0 4.9v2.7c1.4 0 2.9.1 4.3-.1 1.1-.3 1.2-2.1 0-2.4-1.4-.4-2.9-.1-4.3-.2zm10.1-7.3h6.4c1.6.1 3.3 1.1 3.4 2.8.2 1.2-.5 2.3-1.5 3 .7.4 1.6.8 1.9 1.7.5 1.2.3 2.8-.7 3.7-1 .9-2.5 1.1-3.8 1.1h-5.8c.1-4 .1-8.1.1-12.3zm2.6 2.4v2.6c1.2 0 2.5.2 3.7-.2 1-.3 1-1.9 0-2.2-1.2-.3-2.4-.1-3.7-.2zm0 4.9v2.7c1.4 0 2.8.1 4.1-.1 1.2-.2 1.4-2 .2-2.4-1.3-.4-2.8-.1-4.3-.2zm10.1-7.3c2.2 0 4.4-.1 6.5 0 1.6.1 3.4 1.4 3.3 3.2.1 1.1-.6 2-1.5 2.7 1.2.5 2.3 1.5 2.1 2.9.2 1.7-1.2 3.1-2.8 3.4l-7.7.1c.1-4.1.1-8.2.1-12.3zm2.7 2.4v2.6c1.3 0 2.6.2 3.8-.2 1-.4.8-2.1-.3-2.2-1.2-.3-2.4-.1-3.5-.2zm0 7.6c1.4 0 2.8.1 4.2-.1 1.2-.2 1.2-2.2 0-2.4-1.4-.2-2.8-.1-4.2-.1v2.6zM89 84.9v3.5c1.2 0 2.4.1 3.6-.1 1.5-.3 1.7-2.7.3-3.2-1.3-.4-2.7-.2-3.9-.2zm20.5-2h2.7v2.5h2.2v2.3h-2.2c0 1.5-.1 3.1.1 4.6.6.6 1.4.1 2.1.1v2.1c-1.5.8-4.2.9-4.8-1.1-.3-1.9-.1-3.8-.1-5.7-.3 0-.8-.1-1.1-.1v-2.2h1.1v-2.5zm62.7 1.3h2.6v3.2h3.2v2.5h-3.2v3.2h-2.6v-3.2H169v-2.4h3.2v-3.3zm-73.3 1.7c1.9-.7 4.2-1.1 6.1-.2 1.2.6 1.8 1.9 1.8 3.2v5.8h-2.6v-.9c-1.3 1.1-3.4 1.5-4.9.5-1.7-1.1-1.6-3.9.2-4.8 1.5-.8 3.3-.6 4.9-.2-.3-.6-.4-1.4-1-1.6-1.2-.5-2.6 0-3.8.2-.3-.6-.5-1.3-.7-2zm2.1 5.2c-.8.8 0 2.1 1.1 2 1.3.2 2.4-.9 2.2-2.2-1-.2-2.3-.6-3.3.2zm15.5-5.8h2.7v9.5h-2.7c0-3.2-.1-6.3 0-9.5zm5.2 0h2.7v1.2c.8-.7 1.7-1.5 2.8-1.4 1.5-.1 3 1.1 3.1 2.6.2 2.3 0 4.7.1 7h-2.7c-.1-2 .2-4.1-.1-6.1-.4-1.5-3-1.3-3.1.3-.2 2 0 3.9-.1 5.9h-2.7v-9.5zm12.9.2c1.6-.8 3.6-.3 4.9.9v-1.1h2.7v7.8c0 1.5-.6 3.1-2 3.8-2.3 1.2-5.2.8-7.5-.3l.9-2.1c1.5.7 3.2 1.2 4.8.5 1-.5 1.1-1.7 1.3-2.7-1.4 1.5-3.7 2-5.4.9-2.9-1.4-2.7-6.4.3-7.7zm1.9 2c-1.5.3-2.1 2.3-1.1 3.5 1.1 1.5 3.9.9 4.1-1 .3-1.7-1.5-3.1-3-2.5zm8 .7v-2.8h2.9v2.8h-2.9zm0 3.8h2.9v2.8h-2.9V92"/></svg>