<svg version="1.1" id="layer" xmlns="http://www.w3.org/2000/svg" x="0" y="0" viewBox="0 0 878 652" xml:space="preserve"><style>.st0{fill:#fff}</style><path class="st0" d="M158.1 211.5l-31.8 91.1H190l-31.9-91.1zm45.4 129.4h-90.7l-16.6 46.7H39.8l93.8-235.3h49l93.8 235.3H220l-16.5-46.7zM357.8 117.3v185.4H306V117.3h-73.5V71.5h198.8v45.8zM507.3 211.5l-31.9 91.1h63.8l-31.9-91.1zm45.3 129.4H462l-16.6 46.7H389l93.8-235.3h49l93.9 235.3h-56.4l-16.7-46.7zM698.5 222.8c0 17.1 12.9 20.8 46.2 23.6 69.4 6 90.2 20.8 90.2 69.8 0 41.6-26.8 74.9-103.1 74.9-23.1 0-63.8-6-80-13.4V331c18.5 7.4 49.5 13.9 80.4 13.9 37.9 0 51.3-9.7 51.3-28.7 0-18.5-12-24.5-45.3-27.3-69.3-6-90.1-21.2-90.1-66.1 0-45.8 28.7-74 97.1-74 23.1 0 59.2 4.2 79 12.9v46.7c-20.8-7.8-49-13.4-79.5-13.4-34.2.1-46.2 8.4-46.2 27.8M609.9 543.5c1.7-6.9 6.4-11 12.7-11 7.1 0 10.9 3.7 11.5 11h-24.2zm13-17.5c-11.8 0-20.7 9.8-20.7 22.7 0 13.6 8.9 22.8 22.2 22.8 5.8 0 11.2-1.5 14.8-4.2l.3-.2v-7.5l-1.1.8c-4.3 3.3-8.4 4.6-14 4.6-7.3 0-14.7-5.2-15-15.3h31.9v-4.6c0-11.9-6.9-19.1-18.4-19.1m74.3 44.5h7.2V527h-7.2v43.5zm-102.8-44.2c-5.7 0-11.2 1.6-16 4.6l-.3.2v39.4h7.2V535c2.3-1.2 5.3-1.9 8.8-1.9 1.6 0 4.6.1 7.2 1l.9.3v-7.2l-.5-.1c-2.6-.5-5-.8-7.3-.8m-36.5 38.5c-9.5 0-16-6.4-16-16 0-11.2 7.8-16.1 15.6-16.1 3.8 0 7.9 1.4 11.4 3.9l1.1.8v-7.8l-.4-.2c-4-2.3-7.9-3.3-12.4-3.3-11.2 0-22.6 7.8-22.6 22.7s11.4 22.8 22.6 22.8c4.5 0 8.6-1 13-3.3l.4-.2v-7.8l-1.1.7c-4 2.6-7.6 3.8-11.6 3.8m171.6.4c-3.8 0-5.4-2-5.4-6.9v-25H736V527h-11.9v-10.2h-7.2V527h-6.5v6.3h6.5v25.6c0 8.1 4 12.6 11.3 12.6 3.4 0 6.4-.7 9.4-2.2l.4-.2v-6.7l-1 .5c-2.9 1.5-5 2.3-7.5 2.3m88.3-.6c-2 .3-4.3.4-7.2.4-11 0-17.9-6.2-17.9-16.3 0-9.8 6.5-16.1 16.6-16.1 3.3 0 6.3.6 8.5 1.7v30.3zm0-58.8v21.7c-2.4-1-5.9-1.5-8.5-1.5-14.1 0-23.9 9.4-23.9 22.7 0 14 9.6 22.8 25.2 22.8 4.7 0 9.5-.5 13.9-1.6l.5-.1v-64h-7.2zm-69.6 37.7c1.7-6.9 6.4-11 12.7-11 7.1 0 10.9 3.7 11.5 11h-24.2zm13-17.5c-11.8 0-20.7 9.8-20.7 22.7 0 13.6 8.9 22.8 22.2 22.8 5.8 0 11.2-1.5 14.8-4.2l.3-.2v-7.5l-1.1.8c-4.4 3.3-8.4 4.6-14 4.6-7.3 0-14.7-5.2-15-15.3h31.9v-4.6c0-11.9-6.9-19.1-18.4-19.1m-242.8 38.8c-9.5 0-16-6.4-16-16 0-11.2 7.8-16.1 15.6-16.1 3.8 0 7.9 1.4 11.4 3.9l1.1.8v-7.8l-.4-.2c-4-2.3-7.9-3.3-12.4-3.3-11.2 0-22.5 7.8-22.5 22.7s11.4 22.8 22.6 22.8c4.5 0 8.6-1 13-3.3l.4-.2v-7.8l-1.1.7c-4.1 2.6-7.7 3.8-11.7 3.8m182.3-53.7c-2.7 0-5 2.3-5 5s2.3 5 5 5 5-2.3 5-5c.1-2.8-2.2-5-5-5m-21.2 53.5c-2 .3-4.3.4-7.3.4-11 0-17.9-6.2-17.9-16.3 0-9.8 6.5-16.1 16.6-16.1 3.3 0 6.3.6 8.5 1.7v30.3h.1zm0-37.1c-2.4-1-5.9-1.5-8.5-1.5-14.1 0-23.9 9.4-23.9 22.7 0 14 9.6 22.8 25.2 22.8 4.7 0 9.5-.5 13.9-1.6l.5-.1v-64h-7.2v21.7zm-197.6 37.1c-1.8.3-3.6.5-5.2.5-5.9 0-12.9-1.2-12.9-7 0-6.3 9-7.3 14.4-7.3h3.7v13.8zm-7.5-38.6c-4.6 0-9.4 1.2-13.4 3.4l-.4.2v7.1l1-.5c3.3-1.7 7-3.3 12.1-3.3 5.3 0 8.2 2.7 8.2 7.5v4.4h-4.1c-13.7 0-21.2 4.7-21.2 13.3s6.8 13.2 19.7 13.2c4 0 8.6-.6 12.2-1.6l.5-.1V540c.1-9.2-5-14-14.6-14m-190.8.3c-5.7 0-11.2 1.6-16 4.6l-.3.2v39.4h7.2V535c2.3-1.2 5.3-1.9 8.8-1.9 1.6 0 4.7.1 7.2 1l.9.3v-7.2l-.5-.1c-2.6-.5-4.9-.8-7.3-.8m66.4 36.2L336.7 527h-7.6l16.9 43.1.2.4h7.3l17.1-43.6h-7.4L350 562.5zm-98.1 2.7c-3.8 0-5.4-2-5.4-6.9v-25h11.9V527h-11.9v-10.2h-7.2V527h-6.5v6.3h6.5v25.6c0 8.1 4 12.6 11.3 12.6 3.4 0 6.4-.7 9.4-2.2l.4-.2v-6.7l-1 .5c-2.9 1.5-5 2.3-7.5 2.3m66.4-.6c-1.8.3-3.6.5-5.2.5-5.9 0-12.9-1.2-12.9-7 0-6.3 9-7.3 14.4-7.3h3.7v13.8zm-7.6-38.6c-4.6 0-9.4 1.2-13.4 3.4l-.4.2v7.1l1-.5c3.3-1.7 7-3.3 12.1-3.3 5.3 0 8.2 2.7 8.2 7.5v4.4h-4.1c-13.7 0-21.2 4.7-21.2 13.3s6.8 13.2 19.7 13.2c4 0 8.6-.6 12.2-1.6l.5-.1V540c.1-9.2-5-14-14.6-14m107 44.5h7.2v-64.7h-7.2v64.7zm-37.6-27c1.7-6.9 6.4-11 12.7-11 7.1 0 10.9 3.7 11.5 11h-24.2zm11.3-17.5c-11.8 0-20.7 9.8-20.7 22.7 0 13.6 8.9 22.8 22.2 22.8 5.8 0 11.2-1.5 14.8-4.2l.3-.2v-7.5l-1.1.8c-4.3 3.3-8.4 4.6-14 4.6-7.3 0-14.7-5.2-15-15.3h31.9v-4.6c0-11.9-6.9-19.1-18.4-19.1M365.3 427l-33.4-33.4-33.4 33.4H42.6v39.3h268.9l20.4-20.3 20.4 20.3H825V427z"/></svg>