<svg version="1.1" id="layer" xmlns="http://www.w3.org/2000/svg" x="0" y="0" viewBox="0 0 652 652" xml:space="preserve"><style>.st1{fill:#fff}</style><path d="M498.8 311.2l2.2-1.8-.4 4.2 5.2-4.2-.7 9.9c0 .1 12.3-9.9 12.3-9.9m-220-128c1.3 1.6 126.3-102.3 126.3-102.3.5.7-125.2 104.6-124.9 105L426.4 80.8S304.1 194.4 304.1 194.5c.5.6 132.2-107.1 132.2-107.1 1.2 1.5-125.7 120.4-124.9 121.5.2.3 138.6-112.5 138.7-112.4.5.6-136.7 117.1-135.7 118.3l141.4-114.5S317 220.1 317.1 220.2c1.6 1.9 143.8-116.5 143.8-116.5 1.4 1.7-143.1 119.1-141.5 121.2.8 1 144.5-120 146-118.2.9 1.1-142.8 124.5-142.8 124.5s147-122.7 148.8-120.5c1.3 1.6-140.9 136.1-140.8 136.1C332 248.3 512.1 100 512.1 100L333.5 252.1s180.7-148.4 181.7-147.2C517 107.2 338.6 262 338.6 262c.2.3 182.4-147.7 182.4-147.7 1.8 2.2-139.7 136.3-139.7 136.3l149.3-120.9S391.3 246.1 392.3 247.2l140.6-113.8S401.7 242 403.3 243.9l131.9-106.8c.4.5-120.1 103.2-120.1 103.2S537 140.3 537.7 141c.6.8-98.2 100.9-97.4 102 .4.5 105.8-87.9 106.9-86.6.1.1-101.7 91.3-101.7 91.3l105.4-85.3c.7.9-98.2 91.9-98.2 91.9.6.7 103.3-83.7 103.3-83.7.1.1-97.4 89-97.4 89l101.6-82.2-95.9 87.4s99.1-82 99.9-80.9c.3.4-94.6 85.5-94.1 86.2 1.1 1.4 98.2-79.5 98.2-79.5l-94 83.4c.6.8 94-76.8 94.3-76.4l-84 85.8c.2.3 67.9-56.3 68.5-55.5L492 290l50.2-40.7s-47.8 41.9-47.7 42c0 0 44.5-36.8 44.8-36.3l-22.2 36.2s6.2-5.2 6.3-5.1M495.1 77.9l2.3-1.8-5.3 13c.1.1 8.8-7.3 8.9-7.2L486.2 110s21.3-17.3 21.4-17.3l-22.2 20.4c.3.3 23.2-18.8 23.2-18.8" fill="none" stroke="#fff" stroke-width="9.262" stroke-linecap="round" stroke-linejoin="round"/><path class="st1" d="M176.8 320.1v-19h16.9V286c0-18.8 10.8-28.5 31.7-28.5 3.8 0 7.4.4 11 1.5v19c-1.7-.2-3.6-.4-5.7-.4-12.5 0-14.2 4.6-14.2 16.1v7.4h70.4v19h-70.4v88.6h-22.8v-88.6h-16.9zM151.6 398.7c-7.8 7.6-17.1 11.2-29 11.2-22 0-37.4-14.2-37.4-33.2 0-22.8 14.6-30.2 45-35.1 14.2-2.3 22-3.6 22-13.1 0-7-6.4-11.6-18.8-11.6-13.1 0-20.3 5.5-20.7 15.4H90.3c2.8-24.1 16.7-34.4 44.2-34.4 29.6 0 39.9 10.4 39.9 32.2V384c0 9.9.2 18 3.6 24.7h-20.9c-3.6-2.6-5.5-5.5-5.5-10m-41.3-23.4c0 8.5 6.3 14.2 17.1 14.2 18.4 0 25.1-9.1 25.1-27.5 0-3-.2-5.7-.2-8.5-23.8 7.8-42 4.9-42 21.8"/><path class="st1" d="M267.7 320.1v53.3c0 11.4 1.5 16.1 14 16.1 2.1 0 4.2-.2 5.9-.4v19.7c-4 1.1-8 1.5-11.8 1.5-27.9 0-31.1-11.8-31.1-35.3V263.8h23v56.3zM354.9 398.7c-7.8 7.6-17.1 11.2-29 11.2-22 0-37.4-14.2-37.4-33.2 0-22.8 14.6-30.2 45-35.1 14.2-2.3 22-3.6 22-13.1 0-7-6.4-11.6-18.8-11.6-13.1 0-20.3 5.5-20.7 15.4h-22.4c2.8-24.1 16.7-34.4 44.2-34.4 29.6 0 39.9 10.4 39.9 32.2V384c0 9.9.2 18 3.6 24.7h-20.9c-3.6-2.6-5.5-5.5-5.5-10m-41.3-23.4c0 8.5 6.3 14.2 17.1 14.2 18.4 0 25.2-9.1 25.2-27.5 0-3-.2-5.7-.2-8.5-23.9 7.8-42.1 4.9-42.1 21.8M99.7 498.7l-1.3-4.4h-11l-1.3 4.4h-4.8l8.7-27.9h5.7l9 27.9h-5zm-6.4-21.6c-.2-.7-.4-1.5-.5-2.6-.1.9-.2 1.7-.4 2.5l-3.8 13H97l-3.7-12.9zM107.8 470.9h4.7v17.6c0 4.3 1.8 6.4 5.7 6.4 3.9 0 5.7-2.1 5.7-6.4v-17.6h4.7V489c0 7-3.5 10.4-10.4 10.4-7 0-10.5-3.5-10.5-10.4v-18.1h.1zM137.2 490.8c2 2.8 4.4 4.1 7.4 4.1 3.6 0 5.8-1.8 5.8-4 0-3.2-3.1-3.4-8.2-4.5-5.5-1.2-8-3.4-8-7.7 0-5 3.8-8.6 10-8.6 4.7 0 8.2 1.6 10.7 5l-3.7 2.9c-1.6-2.3-4-3.5-6.9-3.5-3.3 0-5.2 1.5-5.2 3.5 0 3.1 2.9 3.4 7.5 4.3 6 1.1 8.8 3.4 8.8 8.1 0 5.2-4 9.1-10.8 9.1-5.2 0-9.3-2-11.5-5.5l4.1-3.2zM159.5 470.9h19.9v4.5h-7.5v23.3H167v-23.3h-7.5zM184.8 470.9h9.9c6.8 0 10.1 2.9 10.1 8.3 0 4-1.9 6.7-5.5 8.1l6.6 11.5h-5.4l-6-10.9h-4.9v10.9h-4.8v-27.9zm9.8 12.8c3.4 0 5.2-1.5 5.2-4.4 0-2.8-1.7-4.1-5-4.1h-5.2v8.5h5zM225.2 498.7l-1.3-4.4h-11l-1.3 4.4h-4.8l8.7-27.9h5.7l9 27.9h-5zm-6.5-21.6c-.2-.7-.4-1.5-.5-2.6-.1.9-.2 1.7-.4 2.5l-3.8 13h8.4l-3.7-12.9zM234.6 470.9h4.9v23.5h11.1v4.3h-16zM255.2 470.9h4.9v27.9h-4.9zM282.6 498.7l-1.3-4.4h-11l-1.3 4.4h-4.8l8.7-27.9h5.7l9 27.9h-5zm-6.4-21.6c-.2-.7-.4-1.5-.5-2.6-.1.9-.2 1.7-.4 2.5l-3.8 13h8.4l-3.7-12.9zM291.9 470.9h4.6l10.7 18.2c.6 1 1 2.2 1.4 3.6-.4-1.9-.5-3.1-.5-3.6v-18.2h4.7v27.9h-4.5l-10.8-18.2c-.6-1-1.1-2.2-1.4-3.6.4 1.8.5 3.1.5 3.6v18.2h-4.7v-27.9zM332 470.9h17.7v4.3h-13v6.8h12v4.3h-12v12.4H332zM355.5 470.9H374v4.2h-13.8v7h12.7v4.2h-12.7v8.1h14.4v4.3h-19.1zM380 470.9h9.4c8 0 12.6 5.4 12.6 14 0 8.8-4.5 13.9-13 13.9h-9v-27.9zm8.9 23.4c5.3 0 8-3.2 8-9.4 0-6.5-2.7-9.7-8.1-9.7h-4.1v19.1h4.2zM407.2 470.9h18.6v4.2H412v7h12.7v4.2H412v8.1h14.3v4.3h-19.1zM431.8 470.9h9.9c6.8 0 10.1 2.9 10.1 8.3 0 4-1.9 6.7-5.5 8.1l6.6 11.5h-5.4l-6-10.9h-4.9v10.9h-4.8v-27.9zm9.8 12.8c3.4 0 5.2-1.5 5.2-4.4 0-2.8-1.7-4.1-5-4.1h-5.2v8.5h5zM472.2 498.7l-1.3-4.4h-11l-1.3 4.4h-4.8l8.7-27.9h5.7l9 27.9h-5zm-6.5-21.6c-.2-.7-.4-1.5-.5-2.6-.1.9-.2 1.7-.4 2.5l-3.8 13h8.4l-3.7-12.9zM476.8 470.9h19.9v4.5h-7.5v23.3h-4.9v-23.3h-7.5zM502 470.9h4.9v27.9H502zM524.6 499.4c-7.4 0-12.5-5.7-12.5-14.6 0-9 5.1-14.6 12.5-14.6s12.5 5.7 12.5 14.6c0 9-5.1 14.6-12.5 14.6m7.5-14.6c0-6.4-2.9-10.1-7.5-10.1-4.5 0-7.5 3.7-7.5 10.1s3 10.1 7.5 10.1c4.5.1 7.5-3.7 7.5-10.1M542.3 470.9h4.6l10.8 18.2c.6 1 1 2.2 1.4 3.6-.4-1.9-.5-3.1-.5-3.6v-18.2h4.7v27.9h-4.5L548 480.6c-.6-1-1.1-2.2-1.4-3.6.4 1.8.5 3.1.5 3.6v18.2h-4.7l-.1-27.9zM158.7 540.1c-7.4 0-12.5-5.7-12.5-14.6 0-9 5.1-14.6 12.5-14.6s12.5 5.7 12.5 14.6-5.1 14.6-12.5 14.6m7.5-14.7c0-6.4-2.9-10.1-7.5-10.1s-7.5 3.7-7.5 10.1c0 6.4 3 10.1 7.5 10.1 4.5.1 7.5-3.6 7.5-10.1M176.4 511.5h17.7v4.4h-12.9v6.7h12v4.3h-12v12.4h-4.8zM211 511.5h19.9v4.5h-7.5v23.3h-4.9V516H211zM236.2 511.5h9.9c6.8 0 10.1 2.9 10.1 8.3 0 4-1.9 6.7-5.5 8.1l6.6 11.5H252l-6-10.9h-5v10.9h-4.8v-27.9zm9.9 12.8c3.4 0 5.2-1.5 5.2-4.4 0-2.8-1.7-4.1-5-4.1H241v8.5h5.1zM276.6 539.3l-1.3-4.4h-11l-1.3 4.4h-4.8l8.7-27.9h5.7l9 27.9h-5zm-6.4-21.6c-.2-.7-.4-1.5-.5-2.6-.1.9-.2 1.7-.4 2.5l-3.8 13h8.4l-3.7-12.9zM282.9 511.5h5l5.5 20.3c.2.8.5 1.7.7 2.9.3-1.4.5-2.3.7-2.9l5.5-20.3h4.8l-8.1 27.9h-6l-8.1-27.9zM309.7 511.5h18.6v4.3h-13.8v6.9h12.7v4.2h-12.7v8.1h14.3v4.3h-19.1zM334.5 511.5h4.8V535h11.2v4.3h-16zM383.3 539.3L382 535h-11l-1.3 4.4h-4.8l8.7-27.9h5.7l9 27.9h-5v-.1zm-6.4-21.6c-.2-.7-.4-1.5-.5-2.6-.1.9-.2 1.7-.4 2.5l-3.8 13h8.4l-3.7-12.9zM414.5 539.3h-4.4v-2c-1.8 1.8-4.2 2.8-7.2 2.8-7.4 0-12.5-5.7-12.5-14.4 0-9 5.1-14.9 12.8-14.9 5.4 0 9.3 2.7 11.2 8l-4.2 1.9c-1.3-3.5-3.9-5.4-7-5.4-4.5 0-7.8 4-7.8 10.1 0 6.5 3.3 10.2 7.9 10.2 3.9 0 6.7-2.6 6.7-6.8v-.1h-6.4v-4.4h10.9v15zM420.6 511.5h18.5v4.3h-13.8v6.9H438v4.2h-12.7v8.1h14.4v4.3h-19.1zM445.1 511.5h4.6l10.7 18.2c.6 1 1 2.2 1.4 3.6-.4-1.9-.5-3.1-.5-3.6v-18.2h4.7v27.9h-4.5l-10.8-18.2c-.6-1-1.1-2.2-1.4-3.6.4 1.8.5 3.1.5 3.6v18.2h-4.7v-27.9zM471.4 511.5h19.8v4.5h-7.5v23.3h-4.8V516h-7.5zM498.7 531.4c2 2.8 4.4 4.1 7.4 4.1 3.6 0 5.8-1.8 5.8-4 0-3.2-3.1-3.4-8.2-4.5-5.5-1.2-8-3.4-8-7.7 0-5 3.8-8.6 10-8.6 4.7 0 8.2 1.6 10.7 5l-3.7 2.9c-1.6-2.3-4-3.5-6.9-3.5-3.3 0-5.2 1.5-5.2 3.5 0 3.1 2.9 3.4 7.5 4.3 6 1.1 8.8 3.4 8.8 8.1 0 5.2-4 9.1-10.8 9.1-5.2 0-9.3-2-11.5-5.5l4.1-3.2zM85.7 434.3h484.7v16.1H85.7zM85.7 560h484.7v16.1H85.7z"/></svg>