<svg version="1.1" id="Layer_1" xmlns="http://www.w3.org/2000/svg" x="0" y="0" viewBox="0 0 400 176" xml:space="preserve"><style>.st0{fill:#fff}</style><path class="st0" d="M1860 1754c-14-2-58-9-99-15s-81-13-88-16c-10-4-13-42-13-165 0-148 1-160 18-153 85 33 153 40 392 39 216 0 257-3 350-22 234-51 466-146 646-267l99-66 75 35c97 45 167 60 244 51l61-7-25 27c-93 100-333 262-525 355-203 98-379 154-583 185-93 15-500 29-552 19zM1325 1631c-283-108-529-267-738-475-208-208-353-427-460-696C84 354 22 147 6 57l-7-38 157 3 156 3 23 90c28 106 64 215 102 303l27 62h686V20h300v825c0 653-3 825-12 825-7 0-58-18-113-39zm-178-838c-2-2-113-2-245-1l-242 3 69 80c99 116 244 234 366 299l50 26 3-201c1-111 1-204-1-206zM3363 1046c-239-61-403-272-403-517 1-314 281-561 585-518 291 41 495 317 447 601-14 78-68 208-86 207-6 0-31-24-55-52-70-83-308-343-410-450-133-138-154-134-190 37-31 145-41 255-27 286 14 32 51 50 102 50 48 0 48 1 64-106 13-84 28-112 53-98 8 5 105 97 216 205l201 197-43 39c-56 51-102 79-173 104-75 26-211 33-281 15zM1660 536c0-481 1-514 18-518 9-2 76-3 147-3l130 1v1029l-147 3-148 3V536zM2087 1043c-4-3-7-60-7-125V800h280l2-392 3-393h290l3 393 2 392h281l-3 123-3 122-421 3c-231 1-424-1-427-5z" transform="matrix(.1 0 0 -.1 0 176)"/></svg>